<?xml version="1.0" encoding="iso-8859-1"?>
<!-- Uploaded to: SVG Repo, www.svgrepo.com, Generator: SVG Repo Mixer Tools -->
<svg height="800px" width="800px" version="1.1" id="Layer_1" xmlns="http://www.w3.org/2000/svg" xmlns:xlink="http://www.w3.org/1999/xlink" 
	 viewBox="0 0 512 512" xml:space="preserve">
<path style="fill:#FFC033;" d="M98.029,491.893c-11.573-8.407-17.255-22.391-14.832-36.485l21.901-127.741
	c0.198-1.134-0.176-2.284-1.002-3.083l-92.803-90.457c-10.24-9.987-13.863-24.643-9.436-38.248s15.966-23.332,30.116-25.387
	L160.22,151.85c1.146-0.165,2.125-0.881,2.632-1.91l57.357-116.212c6.331-12.828,19.148-20.794,33.452-20.794
	s27.121,7.966,33.452,20.79l57.357,116.223c0.506,1.024,1.486,1.74,2.62,1.904l136.429,19.826
	c12.618,1.839,22.893,10.504,26.835,22.628c3.931,12.123,0.705,25.171-8.424,34.063l-98.716,96.221
	c-0.815,0.793-1.19,1.944-0.991,3.077l21.901,127.747c2.422,14.089-3.26,28.073-14.832,36.481
	c-11.562,8.407-26.592,9.514-39.3,2.841l-114.714-60.308c-1.002-0.518-2.202-0.529-3.237,0l-114.714,60.308
	C124.489,501.474,109.466,500.202,98.029,491.893z"/>
<path style="fill:#F9A926;" d="M255.279,434.426l114.714,60.308c12.707,6.673,27.738,5.567,39.3-2.841
	c11.573-8.407,17.255-22.391,14.832-36.481l-21.901-127.747c-0.198-1.134,0.176-2.284,0.991-3.077l98.716-96.221
	c9.129-8.892,12.355-21.94,8.424-34.063c-3.942-12.123-14.215-20.79-26.835-22.628L347.09,151.85
	c-1.134-0.165-2.114-0.881-2.62-1.904L287.113,33.723c-6.331-12.822-19.148-20.79-33.452-20.79v421.103
	C254.22,434.035,254.773,434.165,255.279,434.426z"/>
<path style="fill:#EDF0F2;" d="M166.056,372.46c5.305-30.912,16.738-65.639-14.733-96.315
	c-16.063-15.654,7.652-39.826,23.609-24.224c44.695,43.571,30.081,93.551,24.467,126.265
	C195.54,400.554,162.298,394.441,166.056,372.46z"/>
</svg>